<?xml version="1.0" standalone="no"?>
<!DOCTYPE svg PUBLIC "-//W3C//DTD SVG 20010904//EN"
 "http://www.w3.org/TR/2001/REC-SVG-20010904/DTD/svg10.dtd">
<svg version="1.0" xmlns="http://www.w3.org/2000/svg"
 width="1024.000000pt" height="1024.000000pt" viewBox="0 0 1024.000000 1024.000000"
 preserveAspectRatio="xMidYMid meet">

<g transform="translate(0.000000,1024.000000) scale(0.100000,-0.100000)"
fill="#000000" stroke="none">
<path d="M2976 8335 c-83 -30 -126 -85 -126 -161 0 -58 18 -104 92 -229 93
-159 125 -216 191 -345 l58 -115 -124 -6 c-104 -5 -133 -10 -180 -32 -58 -26
-73 -48 -65 -98 3 -24 89 -101 528 -474 239 -204 360 -307 360 -309 0 -1 -7
-23 -16 -51 -38 -125 -54 -337 -34 -444 14 -73 57 -177 100 -241 44 -64 163
-180 237 -230 29 -19 53 -38 53 -41 0 -3 -40 -9 -88 -12 -54 -3 -111 -14 -148
-28 -74 -28 -90 -28 -189 1 -111 31 -435 41 -548 16 -177 -40 -326 -154 -400
-306 -57 -118 -117 -353 -117 -462 0 -21 -12 -67 -26 -101 -26 -61 -65 -183
-102 -322 l-19 -69 -64 -13 c-194 -39 -383 -199 -438 -373 -16 -52 -78 -404
-86 -490 -6 -60 -15 -89 -46 -146 -71 -130 -215 -533 -225 -631 -10 -96 15
-165 85 -234 110 -108 188 -114 501 -41 118 28 307 72 420 97 281 63 346 86
445 156 l40 29 55 -28 55 -27 1910 -5 1910 -5 70 -22 c39 -13 203 -45 365 -73
162 -27 376 -65 475 -85 283 -54 379 -46 497 43 52 39 70 61 101 122 75 147
74 331 -2 485 -41 82 -139 207 -207 264 l-39 31 3 98 c4 117 -13 195 -67 302
-50 98 -134 234 -178 288 -49 60 -155 143 -244 191 l-76 41 -6 78 c-3 43 -30
173 -60 292 -31 118 -61 260 -67 315 -34 286 -141 472 -321 558 -102 49 -175
61 -317 54 -127 -7 -186 -20 -280 -62 l-61 -27 -75 31 c-94 39 -185 61 -258
61 -32 0 -58 3 -58 8 0 4 24 21 52 37 29 17 95 73 148 125 132 131 192 250
207 413 5 61 -14 230 -42 359 l-14 63 47 45 c26 25 209 187 407 360 447 391
438 383 430 412 -9 33 -58 75 -102 88 -21 6 -91 14 -155 17 -65 3 -118 8 -118
11 0 13 145 281 216 397 125 208 144 274 105 361 -47 102 -177 130 -293 61
-24 -14 -167 -139 -318 -278 -339 -311 -541 -489 -555 -489 -5 0 -37 41 -70
91 -118 179 -286 322 -455 385 -202 76 -367 68 -506 -25 l-41 -28 -54 34 c-62
39 -124 59 -208 69 -115 13 -302 -43 -436 -131 -86 -56 -231 -205 -303 -312
-35 -51 -67 -93 -71 -93 -14 0 -420 360 -708 627 -78 72 -162 143 -185 157
-56 32 -121 40 -172 21z m586 -722 c358 -356 537 -549 521 -564 -5 -4 -72 -13
-150 -20 -134 -12 -159 -18 -132 -34 6 -4 54 -62 107 -129 88 -110 413 -498
536 -638 27 -32 52 -55 55 -53 2 3 -4 15 -15 28 -52 59 -52 59 3 52 103 -14
210 29 263 107 l24 33 -25 -22 c-86 -78 -202 -36 -323 117 -24 31 -27 32 -21
10 17 -62 61 -143 93 -171 l35 -31 -34 7 c-102 21 -106 23 -181 113 -68 80
-144 175 -255 319 -59 75 -58 104 4 182 l48 59 20 -28 c11 -16 38 -39 60 -51
22 -12 41 -23 43 -25 2 -1 -5 -19 -16 -41 -17 -35 -38 -123 -28 -123 2 0 16
26 32 57 57 117 164 193 307 217 l71 12 -22 22 c-23 23 -54 23 -142 1 -53 -13
-102 4 -133 48 -15 21 -27 32 -27 26 0 -22 22 -68 43 -91 l21 -23 -29 -24
c-17 -13 -35 -24 -41 -25 -6 0 -32 14 -57 31 -120 79 -131 223 -23 315 40 35
136 71 156 59 6 -4 3 12 -6 35 -37 92 4 195 100 255 42 25 59 30 115 30 47 0
78 -6 109 -21 45 -23 52 -21 25 8 -16 18 -16 21 2 55 75 139 319 108 353 -44
9 -41 8 -47 -10 -44 -12 2 -10 -17 2 -24 6 -4 10 -70 10 -166 l0 -160 -32 36
c-50 57 -121 89 -199 90 -60 0 -76 -5 -147 -42 l-81 -42 -45 41 c-25 22 -46
36 -46 30 0 -12 75 -128 89 -137 7 -3 28 8 48 26 87 76 190 90 280 39 97 -55
133 -126 133 -259 l0 -90 -36 24 c-22 15 -51 25 -73 25 l-36 0 37 -25 c20 -13
45 -39 56 -57 20 -34 45 -108 35 -108 -3 0 -18 11 -35 25 -44 37 -106 35 -153
-6 -41 -36 -47 -57 -9 -33 33 22 102 22 137 0 14 -10 37 -34 49 -55 22 -34 23
-48 26 -243 4 -217 3 -220 -39 -198 -16 9 -15 5 6 -26 37 -54 49 -103 40 -169
-6 -48 -13 -63 -45 -95 -42 -42 -113 -82 -195 -110 l-50 -17 58 -8 c33 -4 80
-5 105 -1 26 3 56 7 66 8 13 2 26 -8 38 -29 19 -32 19 -33 0 -77 -57 -129
-240 -219 -406 -202 -104 12 -170 67 -200 168 -4 13 -16 17 -54 16 -90 0 -146
50 -161 142 -4 28 -10 52 -12 53 -2 1 -29 11 -61 21 -82 27 -147 80 -183 151
-26 50 -30 70 -30 134 0 68 4 85 38 154 21 42 42 77 46 77 11 0 101 -70 117
-91 7 -8 15 -39 19 -69 9 -71 39 -135 77 -163 17 -12 40 -45 53 -73 55 -124
118 -158 282 -152 59 2 114 7 121 11 9 6 0 23 -34 63 -25 29 -50 52 -54 49 -4
-3 -7 3 -6 11 0 10 -8 18 -19 20 -11 2 -21 8 -23 13 -2 6 -9 11 -15 11 -7 1
-77 59 -157 131 -80 72 -237 203 -349 292 -463 367 -551 437 -661 523 -63 50
-144 110 -178 135 l-64 44 119 8 c65 4 159 10 210 13 l91 6 -19 43 c-11 24
-78 155 -150 292 -132 248 -193 373 -183 373 3 0 172 -165 376 -367z m3289 6
c-95 -187 -171 -343 -168 -345 5 -5 294 -23 376 -24 l45 0 -45 -28 c-24 -16
-168 -127 -319 -248 -151 -121 -327 -260 -390 -309 -139 -109 -575 -470 -645
-534 -27 -25 -42 -37 -34 -26 97 124 194 244 249 305 37 41 106 125 155 185
48 61 136 164 195 230 60 66 118 132 130 147 l21 27 -38 10 c-21 6 -90 15
-153 22 -63 6 -116 12 -117 13 -1 1 41 51 93 111 112 128 805 818 813 809 3
-3 -72 -158 -168 -345z m-1361 138 c20 -14 45 -42 55 -63 17 -36 17 -38 -2
-53 -10 -9 -25 -25 -33 -36 -14 -20 -14 -20 7 -2 29 25 116 57 154 57 62 0
113 -23 165 -75 74 -74 92 -162 48 -233 -14 -22 -14 -22 10 -16 51 13 175 -68
202 -132 28 -68 -11 -186 -79 -238 -50 -38 -77 -41 -112 -11 -27 22 -28 26
-13 35 19 12 68 90 68 108 0 7 -16 -6 -36 -27 -49 -55 -88 -66 -155 -47 -73
22 -105 20 -123 -6 -16 -22 -16 -23 55 -34 135 -23 256 -109 314 -223 14 -29
29 -51 32 -48 7 8 -16 76 -40 116 l-21 34 25 16 c13 9 43 33 65 54 l42 37 30
-35 c38 -43 55 -97 41 -133 -13 -33 -63 -102 -169 -232 -157 -193 -196 -232
-247 -252 -64 -24 -70 -23 -35 6 31 27 85 122 96 170 6 26 -2 20 -60 -43 -37
-39 -85 -82 -108 -93 -57 -30 -126 -29 -168 2 -29 22 -30 22 -16 2 48 -70 169
-124 236 -106 33 9 38 8 39 -7 1 -9 -19 -39 -44 -66 -54 -57 -167 -203 -158
-203 4 0 25 16 48 35 30 26 43 32 49 23 13 -21 10 -25 -49 -54 -54 -26 -56
-29 -33 -35 50 -14 219 -10 258 7 54 22 101 71 129 134 14 30 45 76 69 102 46
49 50 60 62 152 7 58 8 60 71 109 l65 49 28 -56 c46 -91 60 -159 47 -231 -21
-122 -88 -199 -211 -243 -45 -16 -48 -19 -58 -66 -22 -101 -73 -148 -160 -148
-47 1 -47 1 -71 -49 -30 -64 -75 -104 -141 -124 -65 -19 -128 -19 -201 0 -119
31 -218 100 -252 175 -17 38 -18 45 -4 83 16 46 10 44 115 31 63 -8 160 4 129
16 -156 60 -219 101 -250 161 -32 61 -13 183 37 236 18 19 19 23 5 23 -9 0
-19 -4 -22 -10 -3 -5 -13 -10 -22 -10 -13 0 -15 24 -11 198 3 187 5 199 28
241 42 75 96 100 173 78 26 -7 27 -6 15 12 -29 47 -115 52 -171 10 l-29 -21 7
33 c10 46 38 91 81 129 20 17 34 33 32 35 -8 8 -76 -16 -101 -35 -14 -11 -28
-20 -32 -20 -4 0 -5 42 -3 93 3 69 10 103 26 134 71 137 194 187 317 129 28
-13 59 -33 69 -45 34 -38 66 -22 115 59 24 41 29 77 6 43 -8 -12 -31 -31 -50
-43 l-36 -22 -35 27 c-131 100 -313 75 -393 -56 l-21 -34 2 170 c2 94 7 179
12 189 7 14 6 17 -3 12 -17 -11 -4 59 18 97 17 30 63 63 109 78 46 15 130 3
172 -24z m540 -1427 c0 -18 -30 -84 -47 -102 -9 -10 -27 -18 -40 -18 -41 0
-30 42 25 89 49 42 62 48 62 31z m-1720 -90 c0 -4 -6 -13 -14 -19 -29 -25 -86
35 -86 89 0 19 6 16 50 -21 28 -23 50 -45 50 -49z m1580 -25 c0 -8 -7 -15 -16
-15 -14 0 -14 3 -4 15 7 8 14 15 16 15 2 0 4 -7 4 -15z m-1421 -94 l93 -75
-22 -18 c-52 -42 -106 -32 -165 33 -35 39 -43 73 -29 126 7 27 4 29 123 -66z
m1405 69 c32 -12 33 -38 5 -97 -24 -49 -64 -82 -112 -90 -26 -4 -40 1 -65 22
-18 15 -31 32 -30 37 2 6 162 132 175 137 1 1 13 -3 27 -9z m-1199 -228 c-6
-6 -48 19 -77 46 -48 45 -30 45 27 1 30 -24 53 -45 50 -47z m1646 -709 c147
-100 394 -274 483 -340 54 -40 101 -72 102 -70 2 2 -12 79 -31 171 -38 183
-41 216 -23 234 15 15 195 17 232 2 14 -5 32 -20 41 -33 26 -40 213 -922 202
-951 -11 -28 -71 -20 -119 17 -270 207 -511 399 -565 451 -24 22 -43 34 -43
26 0 -7 14 -96 31 -196 17 -101 29 -190 26 -199 -7 -17 -87 -20 -233 -9 l-81
7 -23 151 c-12 83 -42 272 -66 419 -24 147 -44 281 -44 297 0 18 8 34 22 44
30 21 28 21 89 -21z m-1903 4 c158 -46 232 -125 232 -249 0 -120 -76 -222
-201 -268 l-61 -23 95 -96 c52 -53 99 -104 104 -115 12 -22 -2 -97 -20 -108
-7 -4 -77 -8 -157 -8 l-146 0 -36 48 c-21 26 -58 88 -84 136 -33 62 -49 84
-55 74 -4 -7 -17 -65 -29 -128 -12 -63 -27 -120 -33 -127 -8 -7 -68 -14 -161
-19 l-149 -7 8 49 c4 27 24 137 45 244 21 107 53 276 70 374 35 200 47 232 87
239 16 3 120 4 233 2 147 -2 220 -7 258 -18z m1669 15 c16 -10 27 -67 53 -262
12 -91 35 -254 51 -362 16 -108 29 -216 29 -239 l0 -42 -147 6 c-101 4 -150
10 -158 19 -6 7 -17 60 -23 118 -6 58 -27 246 -47 419 -34 295 -35 315 -19
332 15 17 32 19 133 19 64 0 121 -4 128 -8z m-2608 -13 c128 -20 208 -75 230
-156 18 -65 -9 -163 -57 -207 l-21 -18 29 -25 c85 -71 47 -237 -81 -359 -111
-106 -195 -138 -459 -179 -148 -22 -283 -47 -332 -61 -26 -7 -23 33 6 136 14
47 66 243 116 435 49 193 95 362 101 377 6 14 24 32 40 39 60 24 321 36 428
18z m1803 -201 c207 -233 518 -627 518 -656 0 -8 -1111 -4 -1120 5 -11 11 59
114 330 483 157 215 178 240 196 240 7 0 41 -33 76 -72z m-158 -953 c9 -24 -1
-42 -102 -185 -232 -328 -268 -378 -304 -427 l-38 -53 212 -2 213 -3 3 -70 c2
-38 1 -97 -3 -131 l-6 -61 -482 -6 c-265 -4 -485 -3 -489 1 -10 10 14 45 277
397 l216 290 -195 3 -196 2 1 63 c1 99 14 168 33 183 14 10 111 13 436 14 366
0 418 -1 424 -15z m600 1 c282 -4 342 -8 354 -20 13 -13 11 -23 -25 -83 -47
-81 -249 -399 -316 -498 l-47 -70 72 -6 c40 -4 132 -7 204 -8 l132 -1 5 -30
c4 -16 9 -76 13 -134 l7 -105 -469 5 c-258 3 -475 7 -481 10 -25 7 -11 41 57
134 37 52 137 196 220 320 l152 225 -196 6 c-108 3 -198 8 -200 10 -2 2 -6 54
-10 115 -9 143 -7 145 107 139 45 -3 235 -7 421 -9z m-1556 -33 c5 -46 -66
-544 -84 -595 -8 -23 -26 -61 -39 -84 -52 -88 -211 -205 -325 -238 -123 -36
-298 -30 -397 14 -61 27 -137 102 -169 168 -23 49 -27 69 -27 142 0 47 8 126
17 175 72 383 79 405 124 405 15 1 72 5 127 10 55 5 103 5 108 1 4 -4 -2 -52
-13 -106 -11 -54 -32 -177 -46 -273 -24 -169 -24 -175 -7 -210 26 -52 74 -74
150 -70 76 5 169 49 194 93 11 19 32 129 58 305 32 216 45 278 58 288 13 9 53
12 143 10 l125 -3 3 -32z m2432 1 c166 -10 269 -20 276 -28 15 -15 48 -236 37
-247 -5 -5 -64 -5 -138 1 -72 5 -163 10 -203 10 l-73 0 3 -47 3 -48 175 -12
c96 -7 180 -15 186 -17 13 -5 29 -73 40 -170 l7 -58 -119 6 c-66 4 -152 9
-191 12 l-73 6 0 -36 c0 -44 -12 -41 249 -56 111 -6 209 -14 216 -16 20 -8 49
-234 32 -251 -4 -3 -123 -1 -264 6 -142 6 -311 11 -376 11 -65 0 -126 4 -136
10 -21 11 -26 38 -41 225 -6 72 -19 243 -30 380 -11 138 -20 269 -20 293 l0
42 88 0 c48 0 206 -7 352 -16z m571 -39 c380 -38 503 -77 624 -199 169 -169
162 -394 -14 -447 l-39 -12 51 -41 c29 -23 93 -73 142 -111 176 -133 273 -230
252 -251 -6 -7 -121 7 -285 33 l-103 16 -109 94 c-61 51 -142 124 -182 161
-39 37 -69 59 -65 50 14 -38 55 -185 61 -215 l6 -33 -63 0 c-70 1 -283 23
-291 31 -3 2 -26 115 -51 249 -25 135 -64 339 -86 454 -22 115 -38 215 -35
222 7 17 0 17 187 -1z m-4290 -9 c31 -7 72 -22 90 -32 83 -48 110 -184 56
-276 -15 -25 -38 -55 -52 -66 -29 -23 -32 -32 -9 -32 8 0 29 -14 46 -30 30
-30 30 -32 26 -115 -8 -149 -79 -253 -237 -344 -108 -63 -257 -109 -584 -180
-73 -16 -145 -32 -161 -36 -28 -8 -28 -7 -21 26 4 19 27 104 52 189 24 85 80
297 124 470 44 173 85 320 91 328 21 25 62 40 181 66 210 47 303 55 398 32z"/>
<path d="M4469 6725 l-34 -26 41 7 c57 9 110 -18 143 -72 14 -23 41 -52 60
-65 19 -13 60 -46 90 -74 53 -47 52 -46 -15 27 -39 42 -84 102 -100 133 -15
31 -39 65 -52 76 -35 27 -91 25 -133 -6z"/>
<path d="M5638 6731 c-13 -11 -37 -43 -52 -73 -16 -29 -61 -86 -100 -125 -39
-40 -66 -73 -60 -73 6 0 23 14 39 30 16 17 53 47 82 67 29 20 53 41 53 46 0
19 51 77 82 93 21 11 43 14 70 10 21 -3 38 -4 38 -2 0 2 -15 14 -34 25 -42 26
-86 27 -118 2z"/>
<path d="M4126 4953 c-4 -27 -10 -57 -13 -67 -5 -18 -1 -19 77 -13 101 8 154
31 158 69 5 43 -28 58 -129 58 l-87 0 -6 -47z"/>
<path d="M3252 4993 c-24 -5 -42 -38 -42 -79 0 -27 -6 -27 146 -8 48 6 77 32
72 66 -3 22 -8 23 -78 24 -41 1 -85 0 -98 -3z"/>
<path d="M3255 4684 c-49 -8 -94 -16 -99 -17 -6 -2 -15 -27 -21 -55 -14 -61
-21 -59 106 -38 95 16 123 27 139 56 20 37 5 75 -28 69 -4 -1 -47 -8 -97 -15z"/>
<path d="M5211 4686 c-12 -18 -21 -36 -21 -40 0 -3 23 -6 50 -6 28 0 50 2 50
5 0 10 -45 75 -52 75 -3 0 -16 -15 -27 -34z"/>
<path d="M7340 3724 c0 -5 8 -40 18 -78 17 -66 20 -70 53 -79 18 -5 62 -7 96
-5 65 4 103 25 103 59 0 30 -64 76 -122 88 -93 18 -148 24 -148 15z"/>
<path d="M2600 3746 l-54 -11 -18 -59 c-10 -33 -16 -61 -14 -63 2 -2 48 5 102
17 132 27 164 49 150 105 -6 23 -11 25 -59 24 -28 -1 -77 -6 -107 -13z"/>
<path d="M2574 3402 l-121 -25 -15 -64 -15 -63 36 6 c139 24 230 64 255 112
14 26 6 64 -12 60 -4 0 -61 -12 -128 -26z"/>
</g>
</svg>
