<svg width="21" height="28" viewBox="0 0 21 28" fill="none" xmlns="http://www.w3.org/2000/svg">
<path d="M10.5 21.3333C11.1962 21.3333 11.8639 21.0524 12.3562 20.5523C12.8484 20.0522 13.125 19.3739 13.125 18.6667C13.125 17.9594 12.8484 17.2811 12.3562 16.781C11.8639 16.281 11.1962 16 10.5 16C9.80381 16 9.13613 16.281 8.64385 16.781C8.15156 17.2811 7.875 17.9594 7.875 18.6667C7.875 19.3739 8.15156 20.0522 8.64385 20.5523C9.13613 21.0524 9.80381 21.3333 10.5 21.3333ZM18.375 9.33333C19.0712 9.33333 19.7389 9.61429 20.2312 10.1144C20.7234 10.6145 21 11.2928 21 12V25.3333C21 26.0406 20.7234 26.7189 20.2312 27.219C19.7389 27.719 19.0712 28 18.375 28H2.625C1.92881 28 1.26113 27.719 0.768845 27.219C0.276562 26.7189 0 26.0406 0 25.3333V12C0 11.2928 0.276562 10.6145 0.768845 10.1144C1.26113 9.61429 1.92881 9.33333 2.625 9.33333H3.9375V6.66667C3.9375 4.89856 4.6289 3.20286 5.85961 1.95262C7.09032 0.702379 8.75952 0 10.5 0C11.3618 0 12.2152 0.172438 13.0114 0.50747C13.8076 0.842501 14.531 1.33356 15.1404 1.95262C15.7498 2.57168 16.2332 3.30661 16.563 4.11544C16.8928 4.92428 17.0625 5.79119 17.0625 6.66667V9.33333H18.375ZM10.5 2.66667C9.45571 2.66667 8.45419 3.08809 7.71577 3.83824C6.97734 4.58839 6.5625 5.6058 6.5625 6.66667V9.33333H14.4375V6.66667C14.4375 5.6058 14.0227 4.58839 13.2842 3.83824C12.5458 3.08809 11.5443 2.66667 10.5 2.66667Z" fill="black"/>
</svg>
