<svg width="33" height="33" viewBox="0 0 33 33" fill="none" xmlns="http://www.w3.org/2000/svg">
<path d="M32.6683 8.52224L28.7496 5.50274C28.4833 5.33179 28.1938 5.20009 27.8899 5.11169C27.5873 5.01376 27.2723 4.95931 26.9544 4.94999H15.675L16.9966 13.2H26.9544C27.225 13.2 27.5633 13.1389 27.8883 13.0383C28.2134 12.9376 28.5269 12.799 28.748 12.6489L32.6667 9.62609C32.8895 9.47594 33 9.27629 33 9.07499C33 8.87369 32.8894 8.67404 32.6683 8.52224ZM14.025 1.64999H12.375C12.1562 1.64999 11.9464 1.73691 11.7916 1.89163C11.6369 2.04635 11.55 2.25619 11.55 2.47499V8.24999H6.0456C5.7717 8.24999 5.4351 8.31104 5.11005 8.41334C4.78335 8.51234 4.4715 8.64929 4.2504 8.80274L0.33165 11.8222C0.1089 11.9724 0 12.1737 0 12.375C0 12.5746 0.1089 12.7743 0.33165 12.9277L4.2504 15.9505C4.4715 16.1007 4.78335 16.2393 5.11005 16.3383C5.4351 16.4389 5.7717 16.5 6.0456 16.5H11.55V30.525C11.55 30.7438 11.6369 30.9536 11.7916 31.1084C11.9464 31.2631 12.1562 31.35 12.375 31.35H14.025C14.2438 31.35 14.4536 31.2631 14.6084 31.1084C14.7631 30.9536 14.85 30.7438 14.85 30.525V2.47499C14.85 2.25619 14.7631 2.04635 14.6084 1.89163C14.4536 1.73691 14.2438 1.64999 14.025 1.64999Z" fill="black"/>
</svg>
