<svg width="31" height="31" viewBox="0 0 31 31" fill="none" xmlns="http://www.w3.org/2000/svg">
<path d="M30.6884 8.00575L27.0072 5.16925C26.7571 5.00866 26.4851 4.88494 26.1996 4.8019C25.9154 4.7099 25.6195 4.65875 25.3208 4.65H14.725L15.9665 12.4H25.3208C25.575 12.4 25.8927 12.3427 26.1981 12.2481C26.5035 12.1536 26.7979 12.0234 27.0056 11.8823L30.6869 9.0427C30.8961 8.90165 31 8.7141 31 8.525C31 8.3359 30.8961 8.14835 30.6884 8.00575ZM13.175 1.55H11.625C11.4195 1.55 11.2223 1.63165 11.077 1.777C10.9317 1.92234 10.85 2.11946 10.85 2.325V7.75H5.6792C5.4219 7.75 5.1057 7.80735 4.80035 7.90345C4.49345 7.99645 4.2005 8.1251 3.9928 8.26925L0.31155 11.1058C0.1023 11.2468 0 11.4359 0 11.625C0 11.8126 0.1023 12.0001 0.31155 12.1443L3.9928 14.9839C4.2005 15.1249 4.49345 15.2551 4.80035 15.3481C5.1057 15.4427 5.4219 15.5 5.6792 15.5H10.85V28.675C10.85 28.8805 10.9317 29.0777 11.077 29.223C11.2223 29.3683 11.4195 29.45 11.625 29.45H13.175C13.3805 29.45 13.5777 29.3683 13.723 29.223C13.8683 29.0777 13.95 28.8805 13.95 28.675V2.325C13.95 2.11946 13.8683 1.92234 13.723 1.777C13.5777 1.63165 13.3805 1.55 13.175 1.55Z" fill="black"/>
</svg>
