<svg width="126" height="126" viewBox="0 0 126 126" fill="none" xmlns="http://www.w3.org/2000/svg">
<path d="M78.7395 26.25C88.3802 26.2453 97.6366 30.0291 104.513 36.7857C111.39 43.5423 115.337 52.7307 115.502 62.3699C115.667 72.0092 112.038 81.3274 105.397 88.3158C98.756 95.3042 89.6347 99.4032 79.9995 99.729L78.7395 99.75H47.2605C37.6198 99.7547 28.3633 95.9709 21.4865 89.2143C14.6097 82.4577 10.6633 73.2694 10.498 63.6301C10.3327 53.9908 13.9618 44.6726 20.6029 37.6842C27.244 30.6958 36.3653 26.5968 46.0005 26.271L47.2552 26.25H78.7395ZM77.4375 65.625C75.697 65.625 74.0278 66.3164 72.7971 67.5471C71.5664 68.7778 70.875 70.447 70.875 72.1875C70.875 73.928 71.5664 75.5972 72.7971 76.8279C74.0278 78.0586 75.697 78.75 77.4375 78.75C79.178 78.75 80.8472 78.0586 82.0779 76.8279C83.3086 75.5972 84 73.928 84 72.1875C84 70.447 83.3086 68.7778 82.0779 67.5471C80.8472 66.3164 79.178 65.625 77.4375 65.625ZM42 47.25C41.0485 47.25 40.1292 47.5946 39.4121 48.22C38.695 48.8454 38.2286 49.7093 38.0992 50.652L38.0625 51.1875V59.052H30.1875C29.1828 59.0418 28.2121 59.4161 27.4744 60.0982C26.7366 60.7803 26.2875 61.7187 26.2191 62.7211C26.1507 63.7235 26.468 64.7142 27.1062 65.4903C27.7444 66.2664 28.6552 66.7691 29.652 66.8955L30.1875 66.9323L38.0625 66.927V74.8125C38.0628 75.8101 38.4418 76.7704 39.1228 77.4994C39.8039 78.2284 40.7363 78.6716 41.7316 78.7396C42.7269 78.8076 43.7109 78.4953 44.4848 77.8657C45.2587 77.2362 45.7648 76.3363 45.9007 75.348L45.9375 74.8125V66.927H53.8125C54.8039 66.9177 55.7553 66.5348 56.4767 65.8547C57.198 65.1746 57.6363 64.2474 57.7039 63.2582C57.7715 62.2691 57.4635 61.2909 56.8414 60.5189C56.2193 59.747 55.3289 59.2381 54.348 59.094L53.8125 59.0573L45.9375 59.052V51.1875C45.9375 50.1432 45.5226 49.1417 44.7842 48.4033C44.0458 47.6649 43.0443 47.25 42 47.25ZM87.9375 47.25C86.197 47.25 84.5278 47.9414 83.2971 49.1721C82.0664 50.4028 81.375 52.072 81.375 53.8125C81.375 55.553 82.0664 57.2222 83.2971 58.4529C84.5278 59.6836 86.197 60.375 87.9375 60.375C89.678 60.375 91.3472 59.6836 92.5779 58.4529C93.8086 57.2222 94.5 55.553 94.5 53.8125C94.5 52.072 93.8086 50.4028 92.5779 49.1721C91.3472 47.9414 89.678 47.25 87.9375 47.25Z" fill="black"/>
</svg>
