<svg width="126" height="126" viewBox="0 0 126 126" fill="none" xmlns="http://www.w3.org/2000/svg">
<path d="M58.5833 44.5002H49.7499V38.3335H58.5833V44.5002ZM76.2499 38.3335H67.4166V44.5002H76.2499V38.3335ZM49.7499 69.1668H58.5833V63.0002H49.7499V69.1668ZM93.9166 56.8335V50.6668H85.0833V56.8335H93.9166ZM93.9166 69.1668V63.0002H85.0833V69.1668H93.9166ZM67.4166 69.1668H76.2499V63.0002H67.4166V69.1668ZM93.9166 38.3335H85.0833V44.5002H93.9166V38.3335ZM67.4166 50.6668V44.5002H58.5833V50.6668H67.4166ZM40.9166 56.8335V50.6668H49.7499V44.5002H40.9166V38.3335H32.0833V87.6668H40.9166V63.0002H49.7499V56.8335H40.9166ZM76.2499 63.0002H85.0833V56.8335H76.2499V63.0002ZM58.5833 56.8335V63.0002H67.4166V56.8335H58.5833ZM49.7499 50.6668V56.8335H58.5833V50.6668H49.7499ZM67.4166 56.8335H76.2499V50.6668H67.4166V56.8335ZM76.2499 44.5002V50.6668H85.0833V44.5002H76.2499Z" fill="black"/>
</svg>
