<svg width="44" height="44" viewBox="0 0 44 44" fill="none" xmlns="http://www.w3.org/2000/svg">
<path d="M11.5899 9.75044C10.9486 9.75267 10.2893 10.0063 9.66663 10.4949C8.83664 11.1465 8.11503 12.215 7.76251 13.5306C7.41 14.8463 7.50066 16.1322 7.89374 17.1116C8.2869 18.0909 8.94544 18.7408 9.77663 18.9635C10.6076 19.1861 11.5031 18.9527 12.3333 18.3011C13.1633 17.6495 13.8849 16.581 14.2374 15.2654C14.5899 13.9498 14.4992 12.6637 14.1062 11.6844C13.713 10.705 13.0543 10.055 12.2233 9.83242C12.0167 9.77701 11.8037 9.74939 11.5899 9.75026V9.75044ZM32.41 9.75044C32.1962 9.7495 31.9832 9.77707 31.7766 9.83242C30.9454 10.055 30.2867 10.7051 29.8937 11.6844C29.5005 12.6638 29.4099 13.9499 29.7625 15.2654C30.115 16.5811 30.8365 17.6496 31.6665 18.3011C32.4967 18.9525 33.3922 19.186 34.2232 18.9634C35.0542 18.7408 35.7132 18.0908 36.1062 17.1114C36.4994 16.1322 36.5897 14.8461 36.2372 13.5304C35.8847 12.2149 35.1634 11.1465 34.3333 10.4948C33.7107 10.0062 33.0513 9.7525 32.4101 9.75026L32.41 9.75044ZM7.59571 19.4253C6.72379 19.6086 6.04368 19.9819 5.46274 20.5122C4.61351 21.2876 3.97482 22.4504 3.4836 23.9239C2.57266 26.6567 2.19076 30.3988 1.58765 34.2496H12.9739C12.9705 30.391 12.9298 26.6077 12.3892 23.8271C12.114 22.4117 11.7043 21.2673 11.1777 20.5125C10.5871 20.6278 9.97729 20.619 9.37616 20.4579C8.68763 20.2734 8.08882 19.91 7.59571 19.4255V19.4253ZM36.4042 19.4253C35.9109 19.91 35.3123 20.2733 34.6237 20.4578C34.0227 20.6189 33.4129 20.6278 32.8225 20.5125C32.2959 21.2674 31.8858 22.4117 31.6108 23.8271C31.07 26.6077 31.0293 30.391 31.026 34.2496H42.4122C41.8091 30.3989 41.4271 26.6567 40.5162 23.9239C40.0252 22.4505 39.3866 21.2877 38.5372 20.5122C37.9565 19.982 37.2764 19.6087 36.4043 19.4255L36.4042 19.4253ZM15.7263 25.3979V27.3745H17.2734V25.3979H15.7263ZM22.6015 25.3979V27.3745H24.1486V25.3979H22.6015ZM14.4497 28.9214C14.4652 29.3178 14.4766 29.7199 14.4863 30.1245H29.5136C29.5233 29.7199 29.5349 29.3178 29.5503 28.9214H14.4496H14.4497Z" fill="black"/>
</svg>
