<svg width="817" height="780" viewBox="0 0 817 780" fill="none" xmlns="http://www.w3.org/2000/svg">
<path d="M252.844 71.8503C245.792 74.3992 242.139 79.0721 242.139 85.5291C242.139 90.4568 243.668 94.365 249.955 104.985C257.856 118.494 260.575 123.337 266.183 134.297L271.11 144.067L260.575 144.577C251.739 145.002 249.275 145.427 245.282 147.296C240.354 149.505 239.08 151.374 239.76 155.622C240.015 157.661 247.321 164.203 284.619 195.893C304.925 213.225 315.205 221.976 315.205 222.146C315.205 222.231 314.61 224.1 313.846 226.479C310.617 237.099 309.258 255.111 310.957 264.202C312.146 270.404 315.8 279.24 319.453 284.678C323.191 290.115 333.302 299.971 339.589 304.219C342.053 305.833 344.092 307.447 344.092 307.702C344.092 307.957 340.693 308.467 336.615 308.722C332.027 308.976 327.184 309.911 324.041 311.1C317.754 313.479 316.394 313.479 307.983 311.016C298.553 308.382 271.025 307.532 261.425 309.656C246.387 313.055 233.727 322.74 227.44 335.654C222.598 345.68 217.5 365.645 217.5 374.906C217.5 376.69 216.48 380.599 215.291 383.487C213.082 388.67 209.768 399.035 206.625 410.845L205.011 416.707L199.573 417.811C183.091 421.125 167.033 434.719 162.36 449.502C161.001 453.92 155.733 483.826 155.054 491.133C154.544 496.23 153.779 498.694 151.145 503.537C145.113 514.582 132.879 548.821 132.029 557.147C131.18 565.304 133.304 571.166 139.251 577.028C148.597 586.204 155.224 586.714 181.816 580.512C191.842 578.133 207.899 574.395 217.5 572.271C241.374 566.918 246.896 564.964 255.308 559.017L258.706 556.553L263.379 558.932L268.052 561.226L430.327 561.65L592.602 562.075L598.55 563.944C601.863 565.049 615.797 567.768 629.56 570.147C643.324 572.44 661.506 575.669 669.917 577.368C693.961 581.956 702.117 581.276 712.142 573.715C716.56 570.401 718.09 568.532 720.723 563.35C727.095 550.86 727.01 535.228 720.553 522.144C717.07 515.177 708.744 504.557 702.967 499.714L699.653 497.08L699.908 488.754C700.248 478.813 698.803 472.186 694.216 463.096C689.968 454.769 682.831 443.215 679.093 438.627C674.929 433.529 665.924 426.477 658.362 422.399L651.905 418.916L651.395 412.289C651.14 408.636 648.846 397.591 646.298 387.48C643.664 377.455 641.115 365.391 640.605 360.718C637.717 336.419 628.626 320.616 613.333 313.309C604.667 309.146 598.465 308.127 586.4 308.722C575.61 309.316 570.597 310.421 562.611 313.989L557.428 316.283L551.056 313.649C543.07 310.336 535.339 308.467 529.137 308.467C526.418 308.467 524.209 308.212 524.209 307.787C524.209 307.447 526.248 306.003 528.627 304.643C531.091 303.199 536.698 298.441 541.201 294.023C552.416 282.893 557.513 272.783 558.788 258.934C559.213 253.752 557.598 239.393 555.22 228.433L554.03 223.081L558.023 219.258C560.232 217.134 575.78 203.37 592.602 188.672C630.58 155.452 629.815 156.132 629.135 153.668C628.371 150.864 624.208 147.296 620.469 146.191C618.685 145.681 612.738 145.002 607.301 144.747C601.778 144.492 597.275 144.067 597.275 143.812C597.275 142.708 609.595 119.938 615.627 110.083C626.247 92.4109 627.861 86.8035 624.548 79.4119C620.554 70.7458 609.51 68.3669 599.654 74.2293C597.615 75.4187 585.466 86.0388 572.637 97.8484C543.835 124.271 526.673 139.394 525.483 139.394C525.058 139.394 522.34 135.911 519.536 131.663C509.511 116.455 495.237 104.305 480.879 98.9529C463.717 92.4959 449.698 93.1756 437.888 101.077L434.405 103.456L429.817 100.567C424.55 97.2537 419.282 95.5545 412.145 94.7049C402.375 93.6004 386.487 98.3582 375.102 105.835C367.796 110.593 355.476 123.252 349.359 132.343C346.386 136.676 343.667 140.244 343.327 140.244C342.138 140.244 307.643 109.658 283.175 86.9734C276.548 80.8562 269.411 74.824 267.457 73.6346C262.699 70.9158 257.177 70.2361 252.844 71.8503ZM302.631 133.192C333.047 163.438 348.255 179.836 346.895 181.11C346.471 181.45 340.778 182.215 334.151 182.809C322.766 183.829 320.642 184.339 322.936 185.698C323.446 186.038 327.524 190.966 332.027 196.658C339.504 206.004 367.116 238.969 377.566 250.863C379.86 253.582 381.984 255.536 382.239 255.366C382.409 255.111 381.899 254.092 380.965 252.987C376.547 247.974 376.547 247.974 381.22 248.569C389.971 249.759 399.061 246.105 403.564 239.478L405.603 236.675L403.479 238.544C396.173 245.171 386.317 241.602 376.037 228.603C373.998 225.97 373.743 225.885 374.253 227.754C375.697 233.021 379.435 239.903 382.154 242.282L385.128 244.916L382.239 244.321C373.573 242.537 373.233 242.367 366.861 234.721C361.084 227.924 354.627 219.852 345.196 207.618C340.183 201.246 340.268 198.782 345.536 192.155L349.614 187.142L351.313 189.521C352.248 190.881 354.542 192.835 356.411 193.854C358.28 194.874 359.894 195.808 360.064 195.978C360.234 196.063 359.64 197.593 358.705 199.462C357.261 202.435 355.476 209.912 356.326 209.912C356.496 209.912 357.685 207.703 359.045 205.069C363.888 195.129 372.978 188.672 385.128 186.633L391.16 185.613L389.291 183.744C387.337 181.79 384.703 181.79 377.226 183.659C372.723 184.763 368.56 183.319 365.927 179.581C364.652 177.797 363.633 176.862 363.633 177.372C363.633 179.241 365.502 183.149 367.286 185.103L369.07 187.057L366.606 189.096C365.162 190.201 363.633 191.136 363.123 191.221C362.613 191.221 360.404 190.031 358.28 188.587C348.085 181.875 347.15 169.64 356.326 161.824C359.724 158.85 367.881 155.792 369.58 156.811C370.09 157.151 369.835 155.792 369.07 153.838C365.927 146.021 369.41 137.27 377.566 132.173C381.135 130.049 382.579 129.624 387.337 129.624C391.33 129.624 393.964 130.134 396.598 131.408C400.421 133.362 401.015 133.192 398.722 130.728C397.362 129.199 397.362 128.944 398.891 126.055C405.264 114.246 425.994 116.88 428.883 129.794C429.647 133.277 429.562 133.787 428.033 133.532C427.014 133.362 427.183 134.976 428.203 135.571C428.713 135.911 429.053 141.518 429.053 149.675V163.268L426.334 160.21C422.086 155.367 416.054 152.648 409.427 152.563C404.329 152.563 402.97 152.988 396.937 156.132L390.056 159.7L386.232 156.217C384.108 154.347 382.324 153.158 382.324 153.668C382.324 154.687 388.696 164.543 389.886 165.307C390.48 165.562 392.264 164.628 393.964 163.098C401.355 156.641 410.106 155.452 417.753 159.785C425.994 164.458 429.053 170.49 429.053 181.79V189.436L425.994 187.397C424.125 186.123 421.661 185.273 419.792 185.273H416.733L419.877 187.397C421.576 188.502 423.7 190.711 424.635 192.24C426.334 195.129 428.458 201.416 427.608 201.416C427.353 201.416 426.079 200.481 424.635 199.292C420.896 196.148 415.629 196.318 411.636 199.802C408.152 202.86 407.642 204.644 410.871 202.605C413.675 200.736 419.537 200.736 422.511 202.605C423.7 203.455 425.654 205.494 426.674 207.278C428.543 210.167 428.628 211.356 428.883 227.924C429.223 246.36 429.138 246.615 425.569 244.746C424.21 243.981 424.295 244.321 426.079 246.955C429.223 251.543 430.242 255.706 429.477 261.313C428.968 265.391 428.373 266.666 425.654 269.385C422.086 272.953 416.054 276.351 409.087 278.73L404.839 280.175L409.766 280.854C412.57 281.194 416.563 281.279 418.687 280.939C420.896 280.684 423.445 280.345 424.295 280.26C425.399 280.09 426.504 280.939 427.523 282.723C429.138 285.442 429.138 285.527 427.523 289.266C422.681 300.225 407.133 307.872 393.029 306.428C384.193 305.408 378.586 300.735 376.037 292.154C375.697 291.05 374.678 290.71 371.449 290.795C363.803 290.795 359.045 286.547 357.77 278.73C357.431 276.351 356.921 274.312 356.751 274.227C356.581 274.142 354.287 273.293 351.568 272.443C344.601 270.149 339.079 265.646 336.02 259.614C333.811 255.366 333.472 253.667 333.472 248.229C333.472 242.452 333.811 241.008 336.7 235.145C338.484 231.577 340.268 228.603 340.608 228.603C341.543 228.603 349.189 234.551 350.549 236.335C351.143 237.014 351.823 239.648 352.163 242.197C352.928 248.229 355.476 253.667 358.705 256.046C360.149 257.065 362.103 259.869 363.208 262.248C367.881 272.783 373.233 275.672 387.167 275.162C392.18 274.992 396.852 274.567 397.447 274.227C398.212 273.718 397.447 272.273 394.558 268.875C392.434 266.411 390.31 264.457 389.971 264.712C389.631 264.967 389.376 264.457 389.461 263.777C389.461 262.928 388.781 262.248 387.847 262.078C386.912 261.908 386.062 261.398 385.892 260.973C385.723 260.464 385.128 260.039 384.618 260.039C384.023 259.954 378.076 255.026 371.279 248.909C364.482 242.792 351.143 231.662 341.628 224.1C302.291 192.92 294.814 186.972 285.469 179.666C280.116 175.418 273.234 170.32 270.346 168.196L264.908 164.458L275.018 163.778C280.541 163.438 288.527 162.929 292.86 162.674L300.592 162.164L298.977 158.511C298.043 156.471 292.35 145.342 286.233 133.702C275.018 112.632 269.836 102.012 270.685 102.012C270.94 102.012 285.299 116.03 302.631 133.192ZM582.067 132.682C573.996 148.57 567.539 161.824 567.794 161.994C568.219 162.419 592.772 163.948 599.739 164.033H603.562L599.739 166.412C597.7 167.771 585.466 177.202 572.637 187.482C559.807 197.763 544.854 209.572 539.502 213.735C527.692 222.996 490.649 253.667 484.702 259.104C482.408 261.228 481.134 262.248 481.813 261.313C490.055 250.778 498.296 240.583 502.969 235.4C506.112 231.917 511.974 224.78 516.138 219.682C520.216 214.5 527.692 205.749 532.705 200.141C537.803 194.534 542.73 188.927 543.75 187.652L545.534 185.358L542.305 184.509C540.521 183.999 534.659 183.234 529.306 182.639C523.954 182.13 519.451 181.62 519.366 181.535C519.281 181.45 522.849 177.202 527.267 172.104C536.783 161.229 595.661 102.606 596.341 103.371C596.595 103.626 590.223 116.795 582.067 132.682ZM466.435 120.958C468.135 122.147 470.259 124.526 471.108 126.31C472.553 129.369 472.553 129.539 470.938 130.813C470.089 131.578 468.814 132.937 468.135 133.872C466.945 135.571 466.945 135.571 468.729 134.042C471.193 131.918 478.585 129.199 481.813 129.199C487.081 129.199 491.414 131.153 495.832 135.571C502.119 141.858 503.648 149.335 499.91 155.367C498.721 157.236 498.721 157.236 500.76 156.726C505.093 155.622 515.628 162.504 517.922 167.941C520.301 173.719 516.987 183.744 511.21 188.162C506.962 191.39 504.668 191.645 501.694 189.096C499.4 187.227 499.315 186.888 500.59 186.123C502.204 185.103 506.367 178.476 506.367 176.947C506.367 176.352 505.008 177.457 503.308 179.241C499.145 183.914 495.832 184.848 490.139 183.234C483.937 181.365 481.219 181.535 479.689 183.744C478.33 185.613 478.33 185.698 484.362 186.633C495.832 188.587 506.112 195.893 511.04 205.579C512.229 208.043 513.504 209.912 513.759 209.657C514.353 208.977 512.399 203.2 510.36 199.802L508.576 196.913L510.7 195.554C511.805 194.789 514.353 192.75 516.222 190.966L519.791 187.822L522.34 190.796C525.568 194.449 527.013 199.037 525.823 202.096C524.719 204.899 520.471 210.762 511.465 221.806C498.126 238.204 494.812 241.517 490.479 243.217C485.042 245.256 484.532 245.171 487.506 242.707C490.139 240.413 494.727 232.342 495.662 228.264C496.172 226.055 495.492 226.564 490.564 231.917C487.421 235.23 483.343 238.884 481.388 239.818C476.546 242.367 470.683 242.282 467.115 239.648C464.651 237.779 464.566 237.779 465.756 239.478C469.834 245.426 480.114 250.014 485.806 248.484C488.61 247.72 489.035 247.805 489.12 249.079C489.205 249.844 487.506 252.392 485.382 254.686C480.794 259.529 471.193 271.933 471.958 271.933C472.298 271.933 474.082 270.574 476.036 268.96C478.585 266.751 479.689 266.241 480.199 267.006C481.304 268.79 481.049 269.13 476.036 271.594C471.448 273.803 471.278 274.057 473.232 274.567C477.48 275.757 491.839 275.417 495.152 273.973C499.74 272.103 503.733 267.94 506.112 262.588C507.302 260.039 509.935 256.131 511.974 253.922C515.883 249.759 516.222 248.824 517.242 241.008C517.837 236.08 517.922 235.91 523.274 231.747L528.797 227.584L531.176 232.342C535.084 240.073 536.273 245.85 535.169 251.968C533.385 262.333 527.692 268.875 517.242 272.613C513.419 273.973 513.164 274.227 512.314 278.221C510.445 286.802 506.112 290.795 498.721 290.795C494.727 290.71 494.727 290.71 492.688 294.958C490.139 300.395 486.316 303.794 480.709 305.493C475.186 307.107 469.834 307.107 463.632 305.493C453.521 302.859 445.11 296.997 442.221 290.625C440.777 287.396 440.692 286.802 441.882 283.573C443.241 279.665 442.731 279.835 451.652 280.939C457.005 281.619 465.246 280.599 462.612 279.58C449.358 274.482 444.006 270.999 441.372 265.901C438.653 260.719 440.267 250.353 444.515 245.85C446.045 244.236 446.13 243.896 444.94 243.896C444.176 243.896 443.326 244.236 443.071 244.746C442.816 245.171 441.967 245.596 441.202 245.596C440.097 245.596 439.928 243.556 440.267 228.773C440.522 212.886 440.692 211.866 442.646 208.298C446.215 201.926 450.803 199.802 457.345 201.671C459.554 202.265 459.638 202.181 458.619 200.651C456.155 196.658 448.848 196.233 444.091 199.802L441.627 201.586L442.221 198.782C443.071 194.874 445.45 191.051 449.103 187.822C450.803 186.378 451.992 185.018 451.822 184.848C451.142 184.169 445.365 186.208 443.241 187.822C442.052 188.757 440.862 189.521 440.522 189.521C440.182 189.521 440.097 185.953 440.267 181.62C440.522 175.758 441.117 172.869 442.476 170.235C448.509 158.596 458.959 154.347 469.409 159.275C471.788 160.38 474.422 162.079 475.271 163.098C478.16 166.327 480.879 164.968 485.042 158.086C487.081 154.602 487.506 151.544 485.552 154.432C484.872 155.452 482.918 157.066 481.304 158.086L478.245 159.955L475.271 157.661C464.141 149.165 448.679 151.289 441.882 162.419L440.097 165.307L440.267 150.864C440.437 142.878 440.862 135.656 441.287 134.806C441.882 133.617 441.797 133.362 441.032 133.787C439.588 134.721 440.692 128.774 442.561 125.546C444.006 122.997 447.914 120.193 451.822 118.919C455.73 117.644 462.867 118.664 466.435 120.958ZM512.314 242.197C512.314 243.726 509.765 249.334 508.321 250.863C507.556 251.713 506.027 252.392 504.923 252.392C501.439 252.392 502.374 248.824 507.047 244.831C511.21 241.263 512.314 240.753 512.314 242.197ZM366.182 249.844C366.182 250.183 365.672 250.948 364.992 251.458C362.528 253.582 357.685 248.484 357.685 243.896C357.685 242.282 358.195 242.537 361.933 245.681C364.312 247.635 366.182 249.504 366.182 249.844ZM500.42 251.968C500.42 252.647 499.825 253.242 499.06 253.242C497.871 253.242 497.871 252.987 498.721 251.968C499.315 251.288 499.91 250.693 500.08 250.693C500.25 250.693 500.42 251.288 500.42 251.968ZM379.69 259.954L387.592 266.326L385.723 267.855C381.305 271.424 376.717 270.574 371.704 265.052C368.73 261.738 368.051 258.849 369.24 254.347C369.835 252.053 369.58 251.883 379.69 259.954ZM499.06 254.092C501.779 255.111 501.864 257.32 499.485 262.333C497.446 266.496 494.048 269.3 489.97 269.979C487.761 270.319 486.571 269.894 484.447 268.11C482.918 266.836 481.813 265.391 481.898 264.967C482.068 264.457 495.662 253.752 496.766 253.327C496.851 253.242 497.871 253.582 499.06 254.092ZM397.192 273.463C396.682 273.973 393.114 271.848 390.65 269.555C386.572 265.731 388.101 265.731 392.944 269.47C395.493 271.509 397.447 273.293 397.192 273.463ZM537.038 333.7C549.527 342.196 570.512 356.979 578.074 362.587C582.662 365.985 586.655 368.704 586.74 368.534C586.91 368.364 585.72 361.822 584.106 354.006C580.878 338.458 580.623 335.654 582.152 334.125C583.427 332.85 598.72 332.681 601.863 333.955C603.053 334.38 604.582 335.654 605.346 336.759C607.555 340.157 623.443 415.093 622.509 417.557C621.574 419.935 616.476 419.256 612.398 416.112C589.459 398.525 568.983 382.213 564.395 377.795C562.356 375.926 560.742 374.906 560.742 375.586C560.742 376.181 561.931 383.742 563.376 392.238C564.82 400.819 565.84 408.381 565.585 409.145C564.99 410.59 558.193 410.845 545.789 409.91L538.907 409.315L536.953 396.486C535.933 389.434 533.385 373.377 531.346 360.888C529.306 348.398 527.607 337.014 527.607 335.654C527.607 334.125 528.287 332.766 529.476 331.916C532.025 330.132 531.855 330.132 537.038 333.7ZM375.357 333.36C388.781 337.268 395.068 343.98 395.068 354.516C395.068 364.711 388.611 373.377 377.991 377.285L372.808 379.239L380.88 387.395C385.298 391.898 389.291 396.231 389.716 397.166C390.735 399.035 389.546 405.407 388.016 406.342C387.422 406.682 381.474 407.021 374.678 407.021H362.273L359.215 402.943C357.431 400.734 354.287 395.467 352.078 391.389C349.274 386.121 347.915 384.252 347.405 385.101C347.065 385.696 345.961 390.624 344.941 395.976C343.922 401.329 342.647 406.172 342.138 406.767C341.458 407.361 336.36 407.956 328.459 408.381L315.8 408.976L316.479 404.812C316.819 402.518 318.518 393.173 320.303 384.082C322.087 374.991 324.806 360.633 326.25 352.307C329.224 335.314 330.243 332.596 333.641 332.001C335.001 331.746 343.837 331.661 353.437 331.831C365.927 332.001 372.129 332.426 375.357 333.36ZM517.157 332.086C518.516 332.935 519.451 337.778 521.66 354.346C522.68 362.077 524.634 375.926 525.993 385.101C527.352 394.277 528.457 403.453 528.457 405.407V408.976L515.968 408.466C507.387 408.126 503.223 407.616 502.544 406.851C502.034 406.257 501.099 401.754 500.59 396.826C500.08 391.898 498.296 375.926 496.596 361.227C493.708 336.164 493.623 334.465 494.982 333.02C496.257 331.576 497.701 331.406 506.282 331.406C511.72 331.406 516.562 331.746 517.157 332.086ZM295.579 333.19C306.454 334.89 313.251 339.562 315.12 346.444C316.649 351.967 314.355 360.293 310.277 364.031L308.493 365.56L310.957 367.684C318.179 373.717 314.95 387.82 304.075 398.185C294.644 407.191 287.508 409.91 265.078 413.393C252.504 415.263 241.034 417.387 236.871 418.576C234.662 419.171 234.917 415.772 237.381 407.021C238.57 403.028 242.988 386.376 247.236 370.063C251.399 353.666 255.308 339.308 255.817 338.033C256.327 336.844 257.856 335.314 259.216 334.72C264.313 332.681 286.488 331.661 295.579 333.19ZM448.763 350.267C466.35 370.063 492.773 403.538 492.773 406.002C492.773 406.682 398.382 406.342 397.617 405.577C396.682 404.643 402.63 395.892 425.654 364.541C438.993 346.274 440.777 344.15 442.306 344.15C442.901 344.15 445.79 346.954 448.763 350.267ZM435.34 431.235C436.104 433.274 435.255 434.804 426.674 446.953C406.963 474.82 403.904 479.068 400.846 483.231L397.617 487.734L415.629 487.904L433.725 488.159L433.98 494.106C434.15 497.335 434.065 502.348 433.725 505.236L433.216 510.419L392.264 510.929C369.75 511.269 351.058 511.184 350.719 510.844C349.869 509.994 351.908 507.021 374.253 477.114L392.604 452.476L376.037 452.221L359.385 452.051L359.47 446.698C359.555 438.287 360.659 432.425 362.273 431.15C363.463 430.301 371.704 430.046 399.316 429.961C430.412 429.961 434.83 430.046 435.34 431.235ZM486.316 431.15C510.275 431.49 515.373 431.83 516.392 432.85C517.497 433.954 517.327 434.804 514.268 439.901C510.275 446.783 493.113 473.801 487.421 482.212L483.428 488.159L489.545 488.669C492.943 489.009 500.76 489.264 506.877 489.349L518.092 489.434L518.516 491.982C518.856 493.342 519.281 498.439 519.621 503.367L520.216 512.288L480.369 511.863C458.449 511.608 440.013 511.269 439.503 511.014C437.379 510.419 438.568 507.53 444.346 499.629C447.489 495.211 455.985 482.977 463.037 472.441L475.951 453.325L459.299 452.815C450.123 452.561 442.476 452.136 442.306 451.966C442.137 451.796 441.797 447.378 441.457 442.195C440.692 430.046 440.862 429.876 450.548 430.386C454.371 430.641 470.514 430.98 486.316 431.15ZM354.117 433.954C354.542 437.862 348.51 480.173 346.98 484.506C346.301 486.46 344.771 489.688 343.667 491.643C339.249 499.119 325.74 509.06 316.055 511.863C305.604 514.922 290.736 514.412 282.325 510.674C277.142 508.38 270.685 502.008 267.967 496.4C266.013 492.237 265.673 490.538 265.673 484.336C265.673 480.343 266.352 473.631 267.117 469.468C273.234 436.928 273.829 435.059 277.652 435.059C278.927 434.974 283.769 434.634 288.442 434.209C293.115 433.784 297.193 433.784 297.618 434.124C297.958 434.464 297.448 438.542 296.514 443.13C295.579 447.718 293.795 458.168 292.605 466.324C290.566 480.683 290.566 481.192 292.011 484.166C294.22 488.584 298.298 490.453 304.755 490.113C311.212 489.688 319.113 485.95 321.237 482.212C322.172 480.598 323.956 471.252 326.165 456.299C328.884 437.947 329.988 432.68 331.093 431.83C332.197 431.065 335.596 430.811 343.242 430.98L353.862 431.235L354.117 433.954ZM560.742 433.869C574.845 434.719 583.596 435.568 584.191 436.248C585.466 437.522 588.269 456.299 587.335 457.233C586.91 457.658 581.897 457.658 575.61 457.148C569.493 456.724 561.762 456.299 558.363 456.299H552.161L552.416 460.292L552.671 464.37L567.539 465.39C575.695 465.984 582.832 466.664 583.342 466.834C584.446 467.259 585.805 473.036 586.74 481.277L587.335 486.205L577.224 485.695C571.617 485.355 564.31 484.931 560.997 484.676L554.795 484.166V487.225C554.795 490.963 553.775 490.708 575.95 491.982C585.381 492.492 593.707 493.172 594.302 493.342C596.001 494.021 598.465 513.223 597.02 514.667C596.68 514.922 586.57 514.752 574.591 514.157C562.526 513.647 548.168 513.223 542.645 513.223C537.123 513.223 531.94 512.883 531.091 512.373C529.306 511.438 528.882 509.145 527.607 493.257C527.097 487.14 525.993 472.611 525.058 460.972C524.124 449.247 523.359 438.117 523.359 436.078V432.51H530.836C534.914 432.51 548.338 433.104 560.742 433.869ZM609.255 437.183C641.54 440.411 651.99 443.725 662.27 454.09C676.629 468.448 676.034 487.564 661.081 492.067L657.767 493.087L662.1 496.57C664.564 498.524 670.002 502.772 674.165 506.001C689.118 517.301 697.359 525.542 695.575 527.326C695.065 527.921 685.295 526.731 671.361 524.522L662.61 523.163L653.349 515.177C648.167 510.844 641.285 504.642 637.886 501.498C634.573 498.354 632.024 496.485 632.364 497.25C633.553 500.479 637.037 512.968 637.547 515.517L638.056 518.32H632.704C626.757 518.235 608.66 516.366 607.98 515.687C607.725 515.517 605.771 505.916 603.647 494.531C601.523 483.062 598.21 465.729 596.341 455.959C594.471 446.188 593.112 437.692 593.367 437.098C593.962 435.653 593.367 435.653 609.255 437.183ZM244.772 437.947C247.406 438.542 250.89 439.816 252.419 440.666C259.471 444.744 261.765 456.299 257.177 464.115C255.902 466.239 253.948 468.788 252.759 469.723C250.295 471.677 250.04 472.441 251.994 472.441C252.674 472.441 254.458 473.631 255.902 474.99C258.451 477.539 258.451 477.709 258.111 484.761C257.432 497.42 251.399 506.256 237.976 513.987C228.8 519.34 216.141 523.248 188.358 529.28C182.156 530.64 176.039 531.999 174.68 532.339C172.301 533.019 172.301 532.934 172.895 530.13C173.235 528.516 175.189 521.294 177.313 514.072C179.352 506.851 184.11 488.839 187.849 474.141C191.587 459.442 195.07 446.953 195.58 446.273C197.364 444.149 200.848 442.875 210.958 440.666C228.8 436.673 236.701 435.993 244.772 437.947Z" fill="black"/>
<path d="M379.69 208.638L376.802 210.847L380.285 210.252C385.128 209.487 389.631 211.781 392.435 216.369C393.624 218.323 395.918 220.787 397.532 221.892C399.146 222.996 402.63 225.8 405.179 228.179C409.682 232.172 409.597 232.087 403.904 225.885C400.591 222.316 396.768 217.219 395.408 214.585C394.134 211.951 392.095 209.063 390.99 208.128C388.017 205.834 383.259 206.004 379.69 208.638Z" fill="black"/>
<path d="M479.009 208.128C477.905 209.063 475.866 211.781 474.591 214.33C473.232 216.794 469.409 221.637 466.095 224.95C462.782 228.349 460.488 231.152 460.997 231.152C461.507 231.152 462.952 229.963 464.311 228.604C465.67 227.159 468.814 224.61 471.278 222.911C473.742 221.212 475.781 219.428 475.781 219.003C475.781 217.389 480.114 212.461 482.747 211.102C484.532 210.167 486.401 209.912 488.695 210.252C490.479 210.507 491.923 210.592 491.923 210.422C491.923 210.252 490.649 209.233 489.035 208.298C485.466 206.089 481.728 206.004 479.009 208.128Z" fill="black"/>
<path d="M350.549 359.188C350.209 361.482 349.699 364.031 349.444 364.881C349.019 366.41 349.359 366.495 355.986 365.985C364.567 365.305 369.07 363.351 369.41 360.123C369.835 356.47 367.031 355.195 358.45 355.195H351.058L350.549 359.188Z" fill="black"/>
<path d="M276.293 355.79C274.254 356.215 272.724 359.018 272.724 362.502C272.724 364.796 272.215 364.796 285.129 363.182C289.207 362.672 291.671 360.463 291.246 357.574C290.991 355.705 290.566 355.62 284.619 355.535C281.136 355.45 277.397 355.535 276.293 355.79Z" fill="black"/>
<path d="M276.548 382.043C272.385 382.723 268.562 383.402 268.137 383.487C267.627 383.657 266.862 385.781 266.353 388.16C265.163 393.343 264.568 393.173 275.359 391.389C283.43 390.029 285.809 389.095 287.168 386.631C288.867 383.487 287.593 380.259 284.789 380.769C284.449 380.854 280.796 381.448 276.548 382.043Z" fill="black"/>
<path d="M442.731 381.873C441.712 383.402 440.947 384.932 440.947 385.272C440.947 385.526 442.901 385.781 445.195 385.781C447.574 385.781 449.443 385.611 449.443 385.357C449.443 384.507 445.62 378.984 445.025 378.984C444.771 378.984 443.666 380.259 442.731 381.873Z" fill="black"/>
<path d="M623.613 463.606C623.613 464.03 624.292 467.004 625.142 470.233C626.586 475.84 626.841 476.18 629.645 476.945C631.174 477.369 634.913 477.539 637.801 477.369C643.324 477.029 646.552 475.245 646.552 472.357C646.552 469.808 641.115 465.9 636.187 464.88C628.286 463.351 623.613 462.841 623.613 463.606Z" fill="black"/>
<path d="M220.898 461.736L216.31 462.671L214.781 467.684C213.931 470.487 213.422 472.866 213.592 473.036C213.762 473.206 217.67 472.611 222.258 471.592C233.472 469.298 236.191 467.429 235.002 462.671C234.492 460.717 234.067 460.547 229.989 460.632C227.61 460.717 223.447 461.142 220.898 461.736Z" fill="black"/>
<path d="M218.689 490.963L208.409 493.087L207.135 498.525L205.86 503.877L208.919 503.367C220.729 501.328 228.46 497.93 230.584 493.852C231.773 491.643 231.094 488.414 229.564 488.754C229.225 488.754 224.382 489.774 218.689 490.963Z" fill="black"/>
</svg>
