<svg width="174" height="944" viewBox="0 0 174 944" fill="none" xmlns="http://www.w3.org/2000/svg">
<rect x="0.5" y="0.5" width="173" height="943" rx="1.5" fill="url(#paint0_linear_10_297)"/>
<rect x="0.5" y="0.5" width="173" height="943" rx="1.5" stroke="black"/>
<path d="M113.125 94.75V112.875C113.125 114.798 112.361 116.642 111.002 118.002C109.642 119.361 107.798 120.125 105.875 120.125H55.125C53.2022 120.125 51.3581 119.361 49.9985 118.002C48.6388 116.642 47.875 114.798 47.875 112.875V62.125C47.875 60.2022 48.6388 58.3581 49.9985 56.9985C51.3581 55.6388 53.2022 54.875 55.125 54.875H73.25V62.125H55.125V112.875H105.875V94.75H113.125Z" fill="black"/>
<path d="M113.125 69.375H98.625V54.875H91.375V69.375H76.875V76.625H91.375V91.125H98.625V76.625H113.125V69.375Z" fill="black"/>
<path d="M68.25 334H42V323.5H68.25V313L84 328.75L68.25 344.5V334ZM120.75 292V360.25L89.25 376V360.25H57.75V339.25H63V355H89.25V307.75L110.25 297.25H63V318.25H57.75V292H120.75Z" fill="black"/>
<g clip-path="url(#clip0_10_297)">
<path d="M80.6818 585.895C80.5387 585.921 80.3974 585.956 80.2588 586C79.4946 586.171 78.8135 586.602 78.3315 587.219C77.8495 587.837 77.5964 588.602 77.6154 589.385V592.769H47.1538C44.4609 592.769 41.8782 593.839 39.974 595.743C38.0698 597.647 37 600.23 37 602.923V646.923C37 652.528 41.5489 657.077 47.1538 657.077H77.6154V658.346L59.2098 667.549C58.3966 667.942 57.7726 668.641 57.4752 669.494C57.1779 670.347 57.2314 671.283 57.6242 672.096C58.0169 672.909 58.7166 673.533 59.5694 673.831C60.4221 674.128 61.3581 674.075 62.1714 673.682L77.6154 665.962V667.231C77.6154 668.128 77.972 668.989 78.6067 669.624C79.2415 670.259 80.1023 670.615 81 670.615C81.8977 670.615 82.7585 670.259 83.3933 669.624C84.028 668.989 84.3846 668.128 84.3846 667.231V665.962L99.8286 673.682C100.642 674.075 101.578 674.128 102.431 673.831C103.283 673.533 103.983 672.909 104.376 672.096C104.769 671.283 104.822 670.347 104.525 669.494C104.227 668.641 103.603 667.942 102.79 667.549L84.3846 658.346V657.077H114.846C120.451 657.077 125 652.528 125 646.923V602.923C125 600.23 123.93 597.647 122.026 595.743C120.122 593.839 117.539 592.769 114.846 592.769H84.3846V589.385C84.4017 588.903 84.3159 588.424 84.1329 587.978C83.9499 587.533 83.6739 587.132 83.3234 586.801C82.973 586.471 82.556 586.219 82.1005 586.063C81.6449 585.907 81.1613 585.849 80.6818 585.895ZM43.7692 602.923H118.231V646.923H43.7692V602.923ZM107.654 606.308C106.896 606.389 106.187 606.724 105.643 607.259L94.5385 618.367L86.8182 610.64C86.4484 610.261 85.9948 609.973 85.4938 609.801C84.9928 609.629 84.4584 609.577 83.9336 609.649C83.4088 609.721 82.9082 609.916 82.4722 610.216C82.0361 610.517 81.6768 610.916 81.4231 611.381L71.3742 628.941L67.2483 618.574C67.048 618.038 66.7153 617.562 66.2814 617.19C65.8475 616.818 65.3264 616.562 64.7668 616.446C64.2072 616.33 63.6273 616.357 63.0811 616.526C62.535 616.694 62.0403 616.998 61.6434 617.409L51.4895 627.563C51.1695 627.883 50.9156 628.263 50.7423 628.681C50.5691 629.098 50.4798 629.546 50.4796 629.999C50.4795 630.451 50.5684 630.899 50.7414 631.317C50.9144 631.735 51.168 632.115 51.4878 632.435C51.8076 632.755 52.1873 633.009 52.6053 633.182C53.0232 633.356 53.4712 633.445 53.9236 633.445C54.376 633.445 54.824 633.356 55.2421 633.183C55.6601 633.01 56.04 632.757 56.36 632.437L62.8111 625.986L67.6782 638.042C67.9079 638.647 68.306 639.173 68.8255 639.558C69.3449 639.943 69.9639 640.172 70.6092 640.216C71.2545 640.261 71.899 640.12 72.4664 639.809C73.0339 639.499 73.5005 639.032 73.8111 638.465L85.1292 618.685L92.1083 625.668C92.4239 625.994 92.8021 626.254 93.2201 626.431C93.6382 626.609 94.0877 626.7 94.5418 626.7C94.996 626.7 95.4455 626.609 95.8636 626.431C96.2816 626.254 96.6598 625.994 96.9754 625.668L110.514 612.129C111.049 611.634 111.409 610.98 111.542 610.264C111.675 609.547 111.574 608.807 111.252 608.153C110.931 607.499 110.407 606.966 109.759 606.634C109.111 606.301 108.372 606.187 107.654 606.308Z" fill="black"/>
</g>
<path d="M111.594 871.906H105.552C105.14 871.906 104.753 872.087 104.495 872.405C103.894 873.135 103.249 873.84 102.57 874.51C99.7936 877.29 96.5046 879.505 92.8851 881.033C89.1353 882.617 85.1049 883.429 81.0343 883.422C76.9179 883.422 72.9304 882.614 69.1835 881.033C65.5641 879.505 62.275 877.29 59.4984 874.51C56.7168 871.74 54.4987 868.457 52.9671 864.842C51.3773 861.095 50.5781 857.116 50.5781 853C50.5781 848.883 51.3859 844.905 52.9671 841.158C54.4968 837.54 56.6968 834.283 59.4984 831.49C62.3 828.697 65.557 826.497 69.1835 824.967C72.9304 823.386 76.9179 822.578 81.0343 822.578C85.1507 822.578 89.1382 823.377 92.8851 824.967C96.5117 826.497 99.7687 828.697 102.57 831.49C103.249 832.169 103.885 832.873 104.495 833.595C104.753 833.913 105.148 834.094 105.552 834.094H111.594C112.135 834.094 112.47 833.492 112.169 833.037C105.578 822.793 94.0453 816.012 80.9398 816.047C60.3492 816.098 43.8406 832.813 44.0468 853.378C44.2531 873.616 60.7359 889.953 81.0343 889.953C94.1054 889.953 105.587 883.181 112.169 872.963C112.462 872.508 112.135 871.906 111.594 871.906ZM119.234 852.458L107.039 842.833C106.584 842.473 105.922 842.799 105.922 843.375V849.906H78.9375C78.5593 849.906 78.25 850.216 78.25 850.594V855.406C78.25 855.784 78.5593 856.094 78.9375 856.094H105.922V862.625C105.922 863.201 106.592 863.527 107.039 863.166L119.234 853.541C119.316 853.477 119.382 853.395 119.428 853.301C119.474 853.207 119.497 853.104 119.497 853C119.497 852.896 119.474 852.793 119.428 852.699C119.382 852.605 119.316 852.523 119.234 852.458Z" fill="black"/>
<defs>
<linearGradient id="paint0_linear_10_297" x1="-96.5" y1="-20" x2="174.552" y2="-19.5145" gradientUnits="userSpaceOnUse">
<stop stop-color="#006C67"/>
<stop offset="1" stop-color="#00D2C8"/>
</linearGradient>
<clipPath id="clip0_10_297">
<rect width="88" height="88" fill="white" transform="translate(37 586)"/>
</clipPath>
</defs>
</svg>
