<svg width="41" height="41" viewBox="0 0 41 41" fill="none" xmlns="http://www.w3.org/2000/svg">
<g clip-path="url(#clip0_10_278)">
<path d="M20.5001 3.41675C29.9352 3.41675 37.5834 11.065 37.5834 20.5001C37.5834 29.9352 29.9352 37.5834 20.5001 37.5834C11.065 37.5834 3.41675 29.9352 3.41675 20.5001C3.41675 11.065 11.065 3.41675 20.5001 3.41675ZM20.5001 10.2501C20.047 10.2501 19.6125 10.4301 19.2921 10.7504C18.9717 11.0708 18.7918 11.5053 18.7918 11.9584V20.5001C18.7918 20.9531 18.9719 21.3876 19.2923 21.7079L24.4173 26.8329C24.7395 27.1441 25.171 27.3163 25.6189 27.3124C26.0669 27.3085 26.4953 27.1288 26.8121 26.8121C27.1288 26.4953 27.3085 26.0669 27.3124 25.6189C27.3163 25.171 27.1441 24.7395 26.8329 24.4173L22.2084 19.7928V11.9584C22.2084 11.5053 22.0284 11.0708 21.7081 10.7504C21.3877 10.4301 20.9532 10.2501 20.5001 10.2501Z" fill="black"/>
</g>
<defs>
<clipPath id="clip0_10_278">
<rect width="41" height="41" fill="white"/>
</clipPath>
</defs>
</svg>
