<svg width="37" height="37" viewBox="0 0 37 37" fill="none" xmlns="http://www.w3.org/2000/svg">
<g clip-path="url(#clip0_15_113)">
<path fill-rule="evenodd" clip-rule="evenodd" d="M18.5 37C23.4065 37 28.1121 35.0509 31.5815 31.5815C35.0509 28.1121 37 23.4065 37 18.5C37 13.5935 35.0509 8.88795 31.5815 5.41852C28.1121 1.9491 23.4065 0 18.5 0C13.5935 0 8.88795 1.9491 5.41852 5.41852C1.9491 8.88795 0 13.5935 0 18.5C0 23.4065 1.9491 28.1121 5.41852 31.5815C8.88795 35.0509 13.5935 37 18.5 37ZM11.3937 11.5394C10.7354 12.5322 10.4062 13.5112 10.4062 14.4763C10.4062 14.9465 10.6144 15.3828 11.0306 15.7851C11.4469 16.1875 11.9564 16.3879 12.5592 16.3864C13.5844 16.3864 14.2805 15.8113 14.6474 14.6613C15.0359 13.562 15.5107 12.7295 16.0719 12.1638C16.633 11.5995 17.5072 11.3174 18.6942 11.3174C19.7087 11.3174 20.5373 11.5972 21.1802 12.1568C21.8215 12.718 22.1422 13.4056 22.1422 14.2196C22.145 14.6279 22.0362 15.0293 21.8277 15.3804C21.6134 15.7369 21.3521 16.0628 21.0507 16.3494C20.5644 16.7947 20.0647 17.225 19.5522 17.6397C18.7659 18.2919 18.14 18.8546 17.6744 19.3279C17.2119 19.8027 16.8396 20.3523 16.5575 20.9767C15.8129 23.8558 19.6794 24.087 20.572 22.0312C20.6799 21.8339 20.8441 21.6149 21.0646 21.3744C21.2866 21.1355 21.581 20.858 21.9479 20.5419C22.8836 19.7627 23.8041 18.9655 24.7091 18.1508C25.2209 17.6791 25.6626 17.1164 26.0341 16.4627C26.4179 15.7668 26.611 14.9818 26.5938 14.1872C26.5938 13.0895 26.2669 12.072 25.6133 11.1347C24.9611 10.1958 24.0361 9.45427 22.8383 8.91006C21.6404 8.36585 20.259 8.09375 18.6942 8.09375C17.0107 8.09375 15.5377 8.41981 14.2751 9.07194C13.0124 9.72406 12.052 10.5481 11.3937 11.5394ZM16.3424 27.9119C16.3424 28.5252 16.5861 29.1134 17.0198 29.5471C17.4534 29.9807 18.0416 30.2244 18.6549 30.2244C19.2683 30.2244 19.8564 29.9807 20.2901 29.5471C20.7238 29.1134 20.9674 28.5252 20.9674 27.9119C20.9674 27.2986 20.7238 26.7104 20.2901 26.2767C19.8564 25.843 19.2683 25.5994 18.6549 25.5994C18.0416 25.5994 17.4534 25.843 17.0198 26.2767C16.5861 26.7104 16.3424 27.2986 16.3424 27.9119Z" fill="black"/>
</g>
<defs>
<clipPath id="clip0_15_113">
<rect width="37" height="37" fill="white"/>
</clipPath>
</defs>
</svg>
