<svg width="33" height="33" viewBox="0 0 33 33" fill="none" xmlns="http://www.w3.org/2000/svg">
<path d="M29.8908 22.5689C29.6609 24.3156 28.8031 25.9189 27.4775 27.0794C26.152 28.2399 24.4493 28.8782 22.6875 28.875C12.4524 28.875 4.12501 20.5477 4.12501 10.3125C4.12185 8.55072 4.76012 6.84804 5.92059 5.52247C7.08106 4.19689 8.68439 3.33907 10.4311 3.10922C10.8728 3.05528 11.3201 3.14565 11.7062 3.36682C12.0924 3.58799 12.3966 3.92811 12.5735 4.3364L15.296 10.4143V10.4298C15.4315 10.7423 15.4874 11.0836 15.4589 11.423C15.4303 11.7624 15.3181 12.0895 15.1323 12.375C15.1091 12.4098 15.0846 12.442 15.0588 12.4743L12.375 15.6557C13.3405 17.6176 15.3927 19.6518 17.3804 20.6198L20.518 17.9502C20.5488 17.9243 20.5811 17.9002 20.6147 17.878C20.9 17.6877 21.2282 17.5716 21.5696 17.5401C21.911 17.5086 22.2549 17.5627 22.5702 17.6975L22.587 17.7053L28.6597 20.4265C29.0688 20.6028 29.4097 20.9068 29.6316 21.2929C29.8535 21.6791 29.9444 22.1268 29.8908 22.5689Z" fill="black"/>
</svg>
