<svg width="34" height="34" viewBox="0 0 34 34" fill="none" xmlns="http://www.w3.org/2000/svg">
<path d="M30.7966 23.2528C30.5598 25.0525 29.6759 26.7044 28.3102 27.9C26.9445 29.0957 25.1902 29.7533 23.375 29.75C12.8297 29.75 4.25001 21.1703 4.25001 10.625C4.24676 8.80984 4.90436 7.05557 6.1 5.68982C7.29564 4.32407 8.94755 3.44026 10.7472 3.20344C11.2023 3.14788 11.6631 3.24098 12.061 3.46885C12.4588 3.69673 12.7722 4.04715 12.9545 4.46782L15.7595 10.7299V10.7459C15.8991 11.0679 15.9568 11.4194 15.9273 11.7692C15.8979 12.1189 15.7823 12.4559 15.5909 12.75C15.567 12.7859 15.5417 12.8191 15.5152 12.8523L12.75 16.1301C13.7448 18.1515 15.8592 20.2473 17.9071 21.2447L21.1398 18.4941C21.1715 18.4674 21.2048 18.4426 21.2394 18.4198C21.5333 18.2237 21.8714 18.1041 22.2232 18.0716C22.575 18.0392 22.9293 18.0949 23.2542 18.2338L23.2714 18.2418L29.5282 21.0455C29.9496 21.2271 30.3009 21.5403 30.5295 21.9382C30.7582 22.3361 30.8518 22.7973 30.7966 23.2528Z" fill="black"/>
</svg>
