<svg width="92" height="92" viewBox="0 0 92 92" fill="none" xmlns="http://www.w3.org/2000/svg">
<path d="M26.8334 15.3335L16.2917 23.0002M65.1667 15.3335L75.7084 23.0002M19.1667 49.8335C19.1667 53.3573 19.8608 56.8466 21.2093 60.1022C22.5578 63.3577 24.5343 66.3158 27.026 68.8075C29.5178 71.2992 32.4758 73.2758 35.7314 74.6243C38.987 75.9728 42.4763 76.6668 46.0001 76.6668C49.5239 76.6668 53.0132 75.9728 56.2688 74.6243C59.5243 73.2758 62.4824 71.2992 64.9741 68.8075C67.4658 66.3158 69.4423 63.3577 70.7909 60.1022C72.1394 56.8466 72.8334 53.3573 72.8334 49.8335C72.8334 42.7169 70.0063 35.8917 64.9741 30.8595C59.9419 25.8272 53.1167 23.0002 46.0001 23.0002C38.8834 23.0002 32.0583 25.8272 27.026 30.8595C21.9938 35.8917 19.1667 42.7169 19.1667 49.8335Z" stroke="black" stroke-width="2" stroke-linecap="round" stroke-linejoin="round"/>
<path d="M30.6667 49.8335H34.5001L42.1667 61.3335L49.8334 38.3335L57.5001 49.8335H61.3334" stroke="black" stroke-width="2" stroke-linecap="round" stroke-linejoin="round"/>
</svg>
