<svg width="25" height="33" viewBox="0 0 25 33" fill="none" xmlns="http://www.w3.org/2000/svg">
<path d="M12.5 25C13.3288 25 14.1237 24.6708 14.7097 24.0847C15.2958 23.4987 15.625 22.7038 15.625 21.875C15.625 21.0462 15.2958 20.2513 14.7097 19.6653C14.1237 19.0792 13.3288 18.75 12.5 18.75C11.6712 18.75 10.8763 19.0792 10.2903 19.6653C9.70424 20.2513 9.375 21.0462 9.375 21.875C9.375 22.7038 9.70424 23.4987 10.2903 24.0847C10.8763 24.6708 11.6712 25 12.5 25ZM21.875 10.9375C22.7038 10.9375 23.4987 11.2667 24.0847 11.8528C24.6708 12.4388 25 13.2337 25 14.0625V29.6875C25 30.5163 24.6708 31.3112 24.0847 31.8972C23.4987 32.4833 22.7038 32.8125 21.875 32.8125H3.125C2.2962 32.8125 1.50134 32.4833 0.915291 31.8972C0.32924 31.3112 0 30.5163 0 29.6875V14.0625C0 13.2337 0.32924 12.4388 0.915291 11.8528C1.50134 11.2667 2.2962 10.9375 3.125 10.9375H4.6875V7.8125C4.6875 5.7405 5.5106 3.75336 6.97573 2.28823C8.44086 0.8231 10.428 0 12.5 0C13.526 0 14.5419 0.202076 15.4897 0.594691C16.4376 0.987306 17.2988 1.56277 18.0243 2.28823C18.7497 3.01369 19.3252 3.87493 19.7178 4.82279C20.1104 5.77064 20.3125 6.78655 20.3125 7.8125V10.9375H21.875ZM12.5 3.125C11.2568 3.125 10.0645 3.61886 9.18544 4.49794C8.30636 5.37701 7.8125 6.5693 7.8125 7.8125V10.9375H17.1875V7.8125C17.1875 6.5693 16.6936 5.37701 15.8146 4.49794C14.9355 3.61886 13.7432 3.125 12.5 3.125Z" fill="black"/>
</svg>
