<svg width="35" height="31" viewBox="0 0 35 31" fill="none" xmlns="http://www.w3.org/2000/svg">
<path d="M22.2963 18.9577C22.0823 18.8957 20.7294 18.3556 21.5748 16.0794H21.5627C23.7663 14.0692 25.4504 10.8345 25.4504 7.64982C25.4504 2.75301 21.774 0.185974 17.5013 0.185974C13.2259 0.185974 9.56978 2.75182 9.56978 7.64982C9.56978 10.8476 11.2444 14.0954 13.4615 16.1009C14.3257 18.1087 12.7804 18.8539 12.4573 18.9589C7.98267 20.392 2.73267 23.0044 2.73267 25.5833V26.5503C2.73267 30.064 10.4246 30.8629 17.5431 30.8629C24.6723 30.8629 32.2673 30.064 32.2673 26.5503V25.5833C32.2673 22.9269 26.9917 20.3348 22.2963 18.9577Z" fill="black"/>
</svg>
