<svg width="35" height="31" viewBox="0 0 35 31" fill="none" xmlns="http://www.w3.org/2000/svg">
<path d="M22.2963 18.9577C22.0823 18.8957 20.7294 18.3556 21.5748 16.0795H21.5627C23.7663 14.0693 25.4504 10.8345 25.4504 7.64988C25.4504 2.75307 21.774 0.186035 17.5013 0.186035C13.2259 0.186035 9.56978 2.75188 9.56978 7.64988C9.56978 10.8477 11.2444 14.0955 13.4615 16.101C14.3257 18.1088 12.7804 18.854 12.4573 18.9589C7.98267 20.3921 2.73267 23.0044 2.73267 25.5834V26.5503C2.73267 30.0641 10.4246 30.8629 17.5431 30.8629C24.6723 30.8629 32.2673 30.0641 32.2673 26.5503V25.5834C32.2673 22.9269 26.9917 20.3348 22.2963 18.9577Z" fill="black"/>
</svg>
